<?xml version="1.0" encoding="UTF-8"?>
<svg version="1.1" xmlns="http://www.w3.org/2000/svg" width="512" height="512">
<path d="M0 0 C1.09233948 -0.00335861 2.18467896 -0.00671722 3.31011963 -0.01017761 C6.89979204 -0.01962976 10.48941751 -0.02162786 14.07910156 -0.02270508 C16.59100361 -0.02592172 19.10290547 -0.02928609 21.61480713 -0.03279114 C26.87341615 -0.03876812 32.1320134 -0.04067556 37.390625 -0.04003906 C42.76956137 -0.03950547 48.14842584 -0.04653963 53.52734375 -0.06054688 C60.04758378 -0.07727962 66.56775939 -0.08409262 73.08802032 -0.08342934 C75.56134659 -0.08460333 78.03467364 -0.08899219 80.50798798 -0.0967617 C120.96526925 -0.211953 120.96526925 -0.211953 136.88378906 15.24682617 C145.40698002 24.28077015 150.04167534 34.6081687 149.9871521 47.11943054 C149.99168321 47.89281967 149.99621433 48.66620881 150.00088274 49.46303397 C150.01348229 52.03905709 150.01190926 54.61486757 150.01025391 57.19091797 C150.01624203 59.04438039 150.02304823 60.89784032 150.03060913 62.751297 C150.04824969 67.77633473 150.05296376 72.8013043 150.0542407 77.82637 C150.05566422 80.9698283 150.05993767 84.11326939 150.06523514 87.2567234 C150.08373058 98.23479941 150.09190655 109.2128269 150.09033203 120.19091797 C150.0891315 130.4047911 150.11021779 140.61845262 150.14181936 150.83227223 C150.16802351 159.61640241 150.17869756 168.40046366 150.17742121 177.1846326 C150.1769127 182.42424228 150.18253429 187.66366392 150.20377731 192.90323448 C150.2232289 197.83552418 150.22323701 202.76744783 150.20874405 207.6997509 C150.20666326 209.50239856 150.21131295 211.30506955 150.22346497 213.10767746 C150.32944244 229.9276985 147.15588837 242.2322013 135.40722656 254.89526367 C124.77337245 264.95944703 112.89754725 267.60366413 98.65771484 267.54931641 C97.38805878 267.55617966 96.11840271 267.56304291 94.81027222 267.57011414 C91.35554885 267.58792693 87.90108112 267.58689967 84.44632578 267.58117175 C81.54904413 267.57806212 78.65181035 267.58419203 75.75453556 267.5902105 C68.91232495 267.60421553 62.07023931 267.60272852 55.22802734 267.59130859 C48.19902067 267.57983522 41.17039592 267.59389885 34.14143956 267.62070507 C28.07907769 267.64294854 22.01683495 267.64947998 15.95443523 267.64362866 C12.3457625 267.64027796 8.73733436 267.64254677 5.12869644 267.65987968 C1.09906545 267.67839316 -2.9298353 267.66407346 -6.95947266 267.64697266 C-8.13491638 267.65664063 -9.31036011 267.66630859 -10.52142334 267.67626953 C-24.83314486 267.54978277 -35.62580615 262.4859237 -46.03027344 252.83276367 C-57.6835026 240.51991776 -58.72925203 226.88092808 -58.68432617 210.7590332 C-58.690036 208.90512685 -58.69700263 207.05122401 -58.7051239 205.19732666 C-58.72300337 200.18482518 -58.72189666 195.17249927 -58.71618152 190.15997553 C-58.71308189 185.96535807 -58.71919077 181.77077396 -58.72522026 177.57616127 C-58.73924699 167.67517607 -58.73771983 157.77427719 -58.72631836 147.87329102 C-58.71484087 137.6814978 -58.7289109 127.48996784 -58.75571483 117.29820931 C-58.77791409 108.52674869 -58.78449964 99.75537044 -58.77863842 90.98388374 C-58.77527753 85.75439069 -58.77762603 80.52506633 -58.79488945 75.29559708 C-58.8104238 70.37556244 -58.80633135 65.45591596 -58.7875843 60.5358963 C-58.78391623 58.73808997 -58.78695445 56.94025445 -58.79747009 55.14247513 C-58.88817474 38.34304669 -55.70082865 26.04150479 -43.96777344 13.39526367 C-31.4812867 1.57769587 -16.43669989 -0.00735182 0 0 Z M-22.15527344 38.89526367 C-25.80070896 44.47063565 -26.53005249 49.80984923 -26.54096985 56.38034058 C-26.5447954 57.07417536 -26.54862094 57.76801014 -26.55256242 58.48287022 C-26.56281624 60.78952162 -26.55891491 63.09592053 -26.55493164 65.40258789 C-26.55928236 67.06387562 -26.56446671 68.72516133 -26.57041931 70.38644409 C-26.58378227 74.88651307 -26.58439096 79.38649791 -26.58185601 83.88658285 C-26.58078441 87.64887957 -26.58567455 91.4111594 -26.59046143 95.1734525 C-26.6015474 104.05257825 -26.60199923 112.93166169 -26.59594727 121.81079102 C-26.5899083 130.95792158 -26.60221862 140.10489828 -26.62351733 149.2520026 C-26.64115494 157.11719741 -26.64713126 164.98234334 -26.64387959 172.84755719 C-26.64206994 177.53986174 -26.64467105 182.23205654 -26.65859413 186.92434311 C-26.67120293 191.33867723 -26.6691996 195.75277221 -26.65618324 200.16710281 C-26.6538245 201.78233675 -26.65652686 203.39758768 -26.66480637 205.01280212 C-27.13038683 218.09633725 -27.13038683 218.09633725 -22.0053606 229.71331596 C-15.54640578 235.70970797 -7.60142582 235.44020929 0.65283203 235.41992188 C2.27128021 235.42758827 2.27128021 235.42758827 3.92242432 235.43540955 C7.47731119 235.44927152 11.03200343 235.44835125 14.58691406 235.44604492 C17.06641715 235.44993378 19.54591958 235.45426884 22.02542114 235.45903015 C27.21862957 235.46648513 32.41177 235.46620633 37.60498047 235.4609375 C44.24818243 235.45514472 50.89109837 235.47207305 57.53426933 235.49528217 C62.65420143 235.51003966 67.77406666 235.51088843 72.89401627 235.50777245 C75.34273964 235.50828467 77.79146685 235.51350373 80.24016953 235.52358437 C83.66957286 235.53596979 87.09843683 235.52914387 90.52783203 235.51757812 C92.03372391 235.52904373 92.03372391 235.52904373 93.57003784 235.54074097 C100.04362621 235.49267216 107.05266876 235.08775604 112.30857658 230.87035084 C117.25844248 225.45643042 117.96870562 218.96214434 117.98042297 211.91018677 C117.98424852 211.21635198 117.98807407 210.5225172 117.99201554 209.80765712 C118.00226937 207.50100573 117.99836804 205.19460681 117.99438477 202.88793945 C117.99873548 201.22665173 118.00391983 199.56536601 118.00987244 197.90408325 C118.02323539 193.40401428 118.02384409 188.90402943 118.02130914 184.40394449 C118.02023753 180.64164777 118.02512767 176.87936794 118.02991456 173.11707485 C118.04100053 164.23794909 118.04145236 155.35886565 118.03540039 146.47973633 C118.02936143 137.33260577 118.04167174 128.18562906 118.06297046 119.03852475 C118.08060807 111.17332994 118.08658439 103.308184 118.08333272 95.44297016 C118.08152307 90.75066561 118.08412417 86.0584708 118.09804726 81.36618423 C118.11065605 76.95185011 118.10865273 72.53775514 118.09563637 68.12342453 C118.09327763 66.50819059 118.09597999 64.89293966 118.10425949 63.27772522 C118.5941516 50.16930973 118.5941516 50.16930973 113.40941334 38.57721138 C106.99698227 32.73140767 99.86234417 32.85100965 91.70068359 32.87060547 C90.60075073 32.86549454 89.50081787 32.86038361 88.36755371 32.8551178 C84.73749322 32.84123666 81.10762292 32.84217756 77.47753906 32.84448242 C74.94937062 32.84059458 72.42120283 32.83625973 69.89303589 32.83149719 C64.59549574 32.82403806 59.29802514 32.82418529 54.00048828 32.82958984 C47.89175993 32.83562653 41.78326209 32.82332263 35.67457306 32.80201977 C29.78099083 32.78222867 23.88747955 32.77923613 17.99386215 32.7827549 C15.49407281 32.78224219 12.99427975 32.77701393 10.49451065 32.76694298 C6.9953472 32.75457612 3.49671387 32.76137245 -0.00244141 32.77294922 C-1.03023712 32.76530548 -2.05803284 32.75766174 -3.11697388 32.74978638 C-10.57230954 32.80417211 -16.5502734 33.53395929 -22.15527344 38.89526367 Z " fill="#4EA3A5" transform="translate(90.2802734375,212.854736328125)"/>
<path d="M0 0 C1.26965607 -0.00686325 2.53931213 -0.0137265 3.84744263 -0.02079773 C7.302166 -0.03861053 10.75663373 -0.03758326 14.21138906 -0.03185534 C17.10867071 -0.02874571 20.00590449 -0.03487562 22.90317929 -0.04089409 C29.74538989 -0.05489913 36.58747554 -0.05341212 43.4296875 -0.04199219 C50.45869417 -0.03051881 57.48731892 -0.04458244 64.51627529 -0.07138866 C70.57863715 -0.09363214 76.64087989 -0.10016357 82.70327961 -0.09431225 C86.31195234 -0.09096155 89.92038048 -0.09323037 93.5290184 -0.11056328 C97.55864939 -0.12907676 101.58755014 -0.11475705 105.6171875 -0.09765625 C106.79263123 -0.10732422 107.96807495 -0.11699219 109.17913818 -0.12695312 C123.4908597 -0.00046636 134.28352099 5.06339271 144.68798828 14.71655273 C156.34121744 27.02939864 157.38696687 40.66838833 157.34204102 56.7902832 C157.34775085 58.64418955 157.35471747 60.49809239 157.36283875 62.35198975 C157.38071821 67.36449122 157.3796115 72.37681714 157.37389636 77.38934088 C157.37079673 81.58395833 157.37690561 85.77854244 157.38293511 89.97315514 C157.39696183 99.87414034 157.39543468 109.77503922 157.3840332 119.67602539 C157.37255572 129.86781861 157.38662575 140.05934856 157.41342968 150.2511071 C157.43562893 159.02256772 157.44221448 167.79394596 157.43635327 176.56543267 C157.43299237 181.79492572 157.43534087 187.02425008 157.45260429 192.25371933 C157.46813864 197.17375396 157.4640462 202.09340044 157.44529915 207.0134201 C157.44163108 208.81122644 157.44466929 210.60906195 157.45518494 212.40684128 C157.54588959 229.20626972 154.3585435 241.50781162 142.62548828 254.15405273 C130.13900154 265.97162054 115.09441474 267.55666822 98.65771484 267.54931641 C97.56537537 267.55267502 96.47303589 267.55603363 95.34759521 267.55949402 C91.75792281 267.56894616 88.16829734 267.57094426 84.57861328 267.57202148 C82.06671124 267.57523812 79.55480937 267.5786025 77.04290771 267.58210754 C71.78429869 267.58808453 66.52570145 267.58999196 61.26708984 267.58935547 C55.88815347 267.58882187 50.509289 267.59585604 45.13037109 267.60986328 C38.61013106 267.62659603 32.08995546 267.63340902 25.56969452 267.63274574 C23.09636825 267.63391973 20.62304121 267.63830859 18.14972687 267.64607811 C-22.3075544 267.7612694 -22.3075544 267.7612694 -38.22607422 252.30249023 C-46.74926518 243.26854626 -51.38396049 232.94114771 -51.32943726 220.42988586 C-51.33396837 219.65649673 -51.33849948 218.8831076 -51.3431679 218.08628243 C-51.35576744 215.51025932 -51.35419441 212.93444884 -51.35253906 210.35839844 C-51.35852718 208.50493602 -51.36533338 206.65147608 -51.37289429 204.79801941 C-51.39053485 199.77298168 -51.39524891 194.74801211 -51.39652586 189.72294641 C-51.39794938 186.5794881 -51.40222283 183.43604702 -51.40752029 180.292593 C-51.42601574 169.314517 -51.43419171 158.33648951 -51.43261719 147.35839844 C-51.43141666 137.14452531 -51.45250295 126.93086379 -51.48410451 116.71704417 C-51.51030866 107.932914 -51.52098271 99.14885274 -51.51970637 90.36468381 C-51.51919786 85.12507413 -51.52481945 79.88565248 -51.54606247 74.64608192 C-51.56551405 69.71379223 -51.56552216 64.78186857 -51.55102921 59.84956551 C-51.54894842 58.04691784 -51.55359811 56.24424685 -51.56575012 54.44163895 C-51.6717276 37.6216179 -48.49817352 25.3171151 -36.74951172 12.65405273 C-26.1156576 2.58986937 -14.23983241 -0.05434772 0 0 Z M-14.99951172 38.15405273 C-18.55474137 43.75623278 -19.31182229 49.08761124 -19.32270813 55.63912964 C-19.32653368 56.33296442 -19.33035922 57.0267992 -19.3343007 57.74165928 C-19.34455452 60.04831068 -19.34065319 62.35470959 -19.33666992 64.66137695 C-19.34102064 66.32266468 -19.34620499 67.9839504 -19.35215759 69.64523315 C-19.36552055 74.14530213 -19.36612925 78.64528697 -19.36359429 83.14537191 C-19.36252269 86.90766863 -19.36741283 90.66994847 -19.37219971 94.43224156 C-19.38328568 103.31136731 -19.38373751 112.19045076 -19.37768555 121.06958008 C-19.37164658 130.21671064 -19.3839569 139.36368735 -19.40525562 148.51079166 C-19.42289322 156.37598647 -19.42886954 164.2411324 -19.42561787 172.10634625 C-19.42380822 176.7986508 -19.42640933 181.4908456 -19.44033241 186.18313217 C-19.45294121 190.5974663 -19.45093788 195.01156127 -19.43792152 199.42589188 C-19.43556278 201.04112581 -19.43826514 202.65637675 -19.44654465 204.27159119 C-19.93643675 217.38000668 -19.93643675 217.38000668 -14.75169849 228.97210503 C-8.33926743 234.81790874 -1.20462932 234.69830676 6.95703125 234.67871094 C8.05696411 234.68382187 9.15689697 234.6889328 10.29016113 234.69419861 C13.92022162 234.70807975 17.55009193 234.70713885 21.18017578 234.70483398 C23.70834422 234.70872183 26.23651201 234.71305668 28.76467896 234.71781921 C34.0622191 234.72527834 39.35968971 234.72513112 44.65722656 234.71972656 C50.76595491 234.71368988 56.87445275 234.72599378 62.98314178 234.74729663 C68.87672401 234.76708774 74.7702353 234.77008028 80.66385269 234.76656151 C83.16364203 234.76707422 85.66343509 234.77230248 88.16320419 234.78237343 C91.66236764 234.79474029 95.16100098 234.78794396 98.66015625 234.77636719 C99.68795197 234.78401093 100.71574768 234.79165466 101.77468872 234.79953003 C109.23002438 234.74514429 115.20798824 234.01535712 120.81298828 228.65405273 C124.45842381 223.07868075 125.18776733 217.73946718 125.19868469 211.16897583 C125.20251024 210.47514105 125.20633579 209.78130626 125.21027726 209.06644619 C125.22053109 206.75979479 125.21662976 204.45339587 125.21264648 202.14672852 C125.2169972 200.48544079 125.22218155 198.82415507 125.22813416 197.16287231 C125.24149711 192.66280334 125.24210581 188.1628185 125.23957086 183.66273355 C125.23849925 179.90043683 125.24338939 176.138157 125.24817628 172.37586391 C125.25926224 163.49673816 125.25971407 154.61765471 125.25366211 145.73852539 C125.24762315 136.59139483 125.25993346 127.44441812 125.28123218 118.29731381 C125.29886979 110.432119 125.30484611 102.56697307 125.30159444 94.70175922 C125.29978479 90.00945467 125.30238589 85.31725987 125.31630898 80.6249733 C125.32891777 76.21063917 125.32691444 71.7965442 125.31389809 67.38221359 C125.31153934 65.76697965 125.3142417 64.15172872 125.32252121 62.53651428 C125.78810168 49.45297915 125.78810168 49.45297915 120.66307545 37.83600044 C114.20412062 31.83960844 106.25914066 32.10910711 98.00488281 32.12939453 C96.92591736 32.1242836 95.8469519 32.11917267 94.73529053 32.11390686 C91.18040366 32.10004488 87.62571141 32.10096516 84.07080078 32.10327148 C81.59129769 32.09938263 79.11179527 32.09504756 76.6322937 32.09028625 C71.43908528 32.08283128 66.24594485 32.08311007 61.05273438 32.08837891 C54.40953241 32.09417169 47.76661648 32.07724336 41.12344551 32.05403423 C36.00351341 32.03927675 30.88364818 32.03842797 25.76369858 32.04154396 C23.31497521 32.04103174 20.86624799 32.03581267 18.41754532 32.02573204 C14.98814199 32.01334661 11.55927801 32.02017254 8.12988281 32.03173828 C7.1259549 32.02409454 6.12202698 32.01645081 5.087677 32.00857544 C-2.07124289 32.06173309 -9.88484693 32.55988337 -14.99951172 38.15405273 Z " fill="#4EA3A5" transform="translate(323.06201171875,31.595947265625)"/>
<path d="M0 0 C1.25044098 -0.00700928 2.50088196 -0.01401855 3.78921509 -0.02124023 C7.18211345 -0.03571366 10.57402129 -0.03248502 13.96686172 -0.01972389 C17.5406641 -0.00949837 21.11442814 -0.01901577 24.68823242 -0.02526855 C30.68643669 -0.03251748 36.68444306 -0.0230302 42.68261719 -0.00390625 C49.58785076 0.01785736 56.49261168 0.01080401 63.39783382 -0.01121187 C69.35833968 -0.02944501 75.31870439 -0.03188582 81.27922916 -0.0214572 C84.82525933 -0.01526543 88.37106835 -0.0142659 91.91708374 -0.02760315 C95.87459253 -0.04145212 99.83158459 -0.02218342 103.7890625 0 C105.51946274 -0.01214539 105.51946274 -0.01214539 107.28482056 -0.02453613 C120.57141384 0.11257662 132.84027483 4.64983419 142.64453125 13.76757812 C146.47588261 17.87839276 149.45342406 22.46520613 151.89453125 27.51757812 C152.22407303 28.1982283 152.55361481 28.87887848 152.8931427 29.58015442 C156.69488288 38.52193012 156.4780813 47.13280313 156.42578125 56.66992188 C156.42848249 58.41907465 156.43237014 60.16822596 156.43737793 61.91737366 C156.44324486 65.56770243 156.4348024 69.21763728 156.41601562 72.86791992 C156.39324463 77.51554005 156.4063551 82.16223496 156.43030548 86.80982113 C156.44485444 90.4175547 156.44011584 94.0250739 156.42979431 97.63281441 C156.42715118 99.34499792 156.43031042 101.05720176 156.43971252 102.7693615 C156.51123947 119.45275054 153.22080179 131.72295987 141.58203125 144.26757812 C130.94817713 154.33176149 119.07235194 156.97597858 104.83251953 156.92163086 C102.92803543 156.93192574 102.92803543 156.93192574 100.9850769 156.94242859 C97.53035354 156.96024138 94.0758858 156.95921412 90.62113047 156.9534862 C87.72384882 156.95037657 84.82661504 156.95650648 81.92934024 156.96252495 C75.08712964 156.97652999 68.24504399 156.97504298 61.40283203 156.96362305 C54.37382536 156.95214967 47.34520061 156.9662133 40.31624424 156.99301952 C34.25388238 157.01526299 28.19163964 157.02179443 22.12923992 157.01594311 C18.52056719 157.01259241 14.91213905 157.01486123 11.30350113 157.03219414 C7.27387014 157.05070762 3.24496939 157.03638791 -0.78466797 157.01928711 C-2.54783356 157.03378906 -2.54783356 157.03378906 -4.34661865 157.04858398 C-18.65834017 156.92209722 -29.45100146 151.85823815 -39.85546875 142.20507812 C-51.40889815 129.99768103 -52.57577818 116.43095355 -52.5390625 100.42773438 C-52.54363278 98.67475687 -52.54894085 96.92178115 -52.5549469 95.16880798 C-52.56384283 91.50837897 -52.56149509 87.84816854 -52.55151367 84.18774414 C-52.54002644 79.52321582 -52.56024958 74.85944485 -52.58943081 70.19501591 C-52.60787574 66.57876382 -52.60748396 62.9626905 -52.60179329 59.34640312 C-52.6016411 57.62780126 -52.60759986 55.90918648 -52.62008476 54.19062996 C-52.68020308 44.5608165 -52.40344891 36.3732171 -48.10546875 27.51757812 C-47.62464844 26.52242188 -47.14382813 25.52726562 -46.6484375 24.50195312 C-36.18020805 7.24596682 -19.92554629 -0.13985403 0 0 Z M-17.41796875 40.45507812 C-19.9719632 45.0901051 -20.23182606 49.21632875 -20.26660156 54.45019531 C-20.27620911 55.62201355 -20.28581665 56.79383179 -20.29571533 58.00115967 C-20.29996521 59.25954651 -20.30421509 60.51793335 -20.30859375 61.81445312 C-20.31429382 63.11779602 -20.3199939 64.42113892 -20.3258667 65.76397705 C-20.33634841 68.52104072 -20.34220922 71.27807549 -20.34570312 74.03515625 C-20.35117519 77.5463985 -20.37518712 81.05725053 -20.40367508 84.56837082 C-20.42692365 87.94205647 -20.42875916 91.31569162 -20.43359375 94.68945312 C-20.44594055 95.93974304 -20.45828735 97.19003296 -20.4710083 98.47821045 C-20.48653012 109.43688189 -20.48653012 109.43688189 -15.8303833 119.09613037 C-9.34596306 125.07070586 -1.43813669 124.81255205 6.82763672 124.79223633 C8.4460849 124.79990273 8.4460849 124.79990273 10.097229 124.807724 C13.65211587 124.82158598 17.20680812 124.8206657 20.76171875 124.81835938 C23.24122184 124.82224823 25.72072426 124.8265833 28.20022583 124.8313446 C33.39343425 124.83879958 38.58657468 124.83852078 43.77978516 124.83325195 C50.42298712 124.82745917 57.06590305 124.8443875 63.70907402 124.86759663 C68.82900612 124.88235411 73.94887135 124.88320289 79.06882095 124.8800869 C81.51754433 124.88059912 83.96627154 124.88581819 86.41497421 124.89589882 C89.84437754 124.90828425 93.27324152 124.90145832 96.70263672 124.88989258 C98.20852859 124.90135818 98.20852859 124.90135818 99.74484253 124.91305542 C106.2184309 124.86498661 113.22747344 124.46007049 118.48338127 120.24266529 C125.00758883 113.10680722 124.20191239 104.06316166 124.1953125 95.02539062 C124.20174019 93.07462112 124.20174019 93.07462112 124.20829773 91.08444214 C124.21573045 88.33929349 124.21549047 85.59427351 124.21020508 82.84912109 C124.20441778 79.35359481 124.22133727 75.85859968 124.24454975 72.36316109 C124.26293731 69.00055004 124.25909956 65.63805149 124.2578125 62.27539062 C124.27162712 60.40936691 124.27162712 60.40936691 124.28572083 58.50564575 C124.3365687 47.46275609 124.3365687 47.46275609 119.44258118 37.90335083 C115.56674014 34.56844353 113.06235045 33.39441234 108.06280518 33.3704071 C107.04220001 33.3632518 106.02159485 33.3560965 104.97006226 33.34872437 C103.28380234 33.34469101 103.28380234 33.34469101 101.56347656 33.34057617 C100.38288666 33.33400497 99.20229675 33.32743378 97.9859314 33.32066345 C94.0648463 33.30089418 90.14377455 33.28925936 86.22265625 33.27929688 C84.87250498 33.27524928 83.52235391 33.27113236 82.17220306 33.26694679 C75.82797409 33.2478925 69.48375676 33.23366297 63.13950467 33.22533482 C55.81898261 33.21556633 48.49876324 33.18925835 41.17834783 33.14883393 C35.51880999 33.11865519 29.85935881 33.10386423 24.19974208 33.10055381 C20.82025271 33.09820493 17.44108662 33.08926663 14.06168365 33.06409264 C10.28859748 33.03980272 6.51630413 33.04064827 2.74316406 33.04760742 C1.62708771 33.03479736 0.51101135 33.0219873 -0.6388855 33.00878906 C-8.53615704 33.06193184 -12.39543753 34.07510604 -17.41796875 40.45507812 Z " fill="#FDAE37" transform="translate(324.10546875,323.482421875)"/>
<path d="M0 0 C1.26965607 -0.00686325 2.53931213 -0.0137265 3.84744263 -0.02079773 C7.302166 -0.03861053 10.75663373 -0.03758326 14.21138906 -0.03185534 C17.10867071 -0.02874571 20.00590449 -0.03487562 22.90317929 -0.04089409 C29.74538989 -0.05489913 36.58747554 -0.05341212 43.4296875 -0.04199219 C50.45869417 -0.03051881 57.48731892 -0.04458244 64.51627529 -0.07138866 C70.57863715 -0.09363214 76.64087989 -0.10016357 82.70327961 -0.09431225 C86.31195234 -0.09096155 89.92038048 -0.09323037 93.5290184 -0.11056328 C97.55864939 -0.12907676 101.58755014 -0.11475705 105.6171875 -0.09765625 C106.79263123 -0.10732422 107.96807495 -0.11699219 109.17913818 -0.12695312 C123.4908597 -0.00046636 134.28352099 5.06339271 144.68798828 14.71655273 C156.24141768 26.92394983 157.40829771 40.49067731 157.37158203 56.49389648 C157.37615231 58.24687399 157.38146038 59.9998497 157.38746643 61.75282288 C157.39636236 65.41325189 157.39401462 69.07346232 157.3840332 72.73388672 C157.37254597 77.39841504 157.39276912 82.06218601 157.42195034 86.72661495 C157.44039527 90.34286704 157.44000349 93.95894036 157.43431282 97.57522774 C157.43416063 99.2938296 157.44011939 101.01244438 157.45260429 102.7310009 C157.51272261 112.36081436 157.23596844 120.54841375 152.93798828 129.40405273 C152.45716797 130.39920898 151.97634766 131.39436523 151.48095703 132.41967773 C143.57705863 145.4485823 132.72720109 152.69362455 117.93798828 156.40405273 C113.55811823 156.9211673 109.23929168 156.95256125 104.83251953 156.92163086 C103.58207855 156.92864014 102.33163757 156.93564941 101.04330444 156.94287109 C97.65040608 156.95734452 94.25849824 156.95411588 90.86565781 156.94135475 C87.29185543 156.93112923 83.71809139 156.94064663 80.14428711 156.94689941 C74.14608284 156.95414834 68.14807647 156.94466106 62.14990234 156.92553711 C55.24466877 156.9037735 48.33990785 156.91082685 41.43468571 156.93284273 C35.47417986 156.95107587 29.51381514 156.95351668 23.55329037 156.94308805 C20.0072602 156.93689629 16.46145118 156.93589676 12.91543579 156.94923401 C8.957927 156.96308298 5.00093494 156.94381428 1.04345703 156.92163086 C-0.11014313 156.92972778 -1.26374329 156.93782471 -2.45230103 156.94616699 C-15.73889431 156.80905424 -28.0077553 152.27179667 -37.81201172 143.15405273 C-41.64336308 139.0432381 -44.62090453 134.45642473 -47.06201172 129.40405273 C-47.3915535 128.72340256 -47.72109528 128.04275238 -48.06062317 127.34147644 C-51.86236334 118.39970074 -51.64556177 109.78882773 -51.59326172 100.25170898 C-51.59596296 98.5025562 -51.59985061 96.7534049 -51.6048584 95.0042572 C-51.61072533 91.35392843 -51.60228287 87.70399358 -51.58349609 84.05371094 C-51.5607251 79.40609081 -51.57383557 74.7593959 -51.59778595 70.11180973 C-51.61233491 66.50407616 -51.60759631 62.89655696 -51.59727478 59.28881645 C-51.59463165 57.57663294 -51.59779089 55.8644291 -51.60719299 54.15226936 C-51.67871994 37.46888032 -48.38828226 25.19867098 -36.74951172 12.65405273 C-26.1156576 2.58986937 -14.23983241 -0.05434772 0 0 Z M-14.99951172 38.15405273 C-19.78448007 45.69400287 -19.36914466 53.19835937 -19.36279297 61.89624023 C-19.36707809 63.19675323 -19.37136322 64.49726624 -19.3757782 65.83718872 C-19.38321092 68.58233737 -19.38297094 71.32735734 -19.37768555 74.07250977 C-19.37189825 77.56803605 -19.38881774 81.06303118 -19.41203022 84.55846977 C-19.43041778 87.92108082 -19.42658003 91.28357937 -19.42529297 94.64624023 C-19.43450272 95.89025604 -19.44371246 97.13427185 -19.45320129 98.41598511 C-19.50404917 109.45887477 -19.50404917 109.45887477 -14.61006165 119.01828003 C-10.73422061 122.35318733 -8.22983092 123.52721852 -3.23028564 123.55122375 C-2.20968048 123.55837906 -1.18907532 123.56553436 -0.13754272 123.57290649 C1.54871719 123.57693985 1.54871719 123.57693985 3.26904297 123.58105469 C4.44963287 123.58762589 5.63022278 123.59419708 6.84658813 123.60096741 C10.76767324 123.62073668 14.68874498 123.6323715 18.60986328 123.64233398 C19.96001455 123.64638158 21.31016562 123.6504985 22.66031647 123.65468407 C29.00454544 123.67373836 35.34876277 123.68796789 41.69301486 123.69629604 C49.01353692 123.70606453 56.33375629 123.73237251 63.65417171 123.77279693 C69.31370954 123.80297567 74.97316072 123.81776663 80.63277745 123.82107705 C84.01226682 123.82342593 87.39143292 123.83236423 90.77083588 123.85753822 C94.54392206 123.88182814 98.3162154 123.88098259 102.08935547 123.87402344 C103.76347 123.89323853 103.76347 123.89323853 105.47140503 123.9128418 C111.61271082 123.87151536 115.29522251 123.56444214 119.93798828 119.40405273 C124.31050669 113.8497726 125.05315604 109.38937937 125.09912109 102.47143555 C125.10872864 101.29961731 125.11833618 100.12779907 125.12823486 98.92047119 C125.13248474 97.66208435 125.13673462 96.40369751 125.14111328 95.10717773 C125.14681335 93.80383484 125.15251343 92.50049194 125.15838623 91.15765381 C125.16886794 88.40059014 125.17472875 85.64355537 125.17822266 82.88647461 C125.18369472 79.37523236 125.20770665 75.86438033 125.23619461 72.35326004 C125.25944318 68.97957439 125.26127869 65.60593924 125.26611328 62.23217773 C125.28463348 60.35674286 125.28463348 60.35674286 125.30352783 58.44342041 C125.31904965 47.48474897 125.31904965 47.48474897 120.66290283 37.82550049 C114.17848259 31.850925 106.27065623 32.10907881 98.00488281 32.12939453 C96.92591736 32.1242836 95.8469519 32.11917267 94.73529053 32.11390686 C91.18040366 32.10004488 87.62571141 32.10096516 84.07080078 32.10327148 C81.59129769 32.09938263 79.11179527 32.09504756 76.6322937 32.09028625 C71.43908528 32.08283128 66.24594485 32.08311007 61.05273438 32.08837891 C54.40953241 32.09417169 47.76661648 32.07724336 41.12344551 32.05403423 C36.00351341 32.03927675 30.88364818 32.03842797 25.76369858 32.04154396 C23.31497521 32.04103174 20.86624799 32.03581267 18.41754532 32.02573204 C14.98814199 32.01334661 11.55927801 32.02017254 8.12988281 32.03173828 C7.1259549 32.02409454 6.12202698 32.01645081 5.087677 32.00857544 C-2.07124289 32.06173309 -9.88484693 32.55988337 -14.99951172 38.15405273 Z " fill="#FDAE37" transform="translate(83.06201171875,31.595947265625)"/>
</svg>
